<svg width="141" height="20" viewBox="0 0 141 20" fill="none" xmlns="http://www.w3.org/2000/svg">
<path d="M14.5977 7.46484C14.5742 8.06641 14.4531 8.61719 14.2344 9.11719C14.0156 9.61719 13.7266 10.0703 13.3672 10.4766C13.0078 10.875 12.5898 11.2344 12.1133 11.5547C11.6367 11.8672 11.1289 12.1367 10.5898 12.3633L14 17.7305L11.5742 18.5273L8.29297 13.0547C7.91797 13.125 7.52734 13.1836 7.12109 13.2305C6.72266 13.2773 6.28125 13.3008 5.79688 13.3008C5.40625 13.3008 4.97656 13.2852 4.50781 13.2539C4.04688 13.2148 3.5625 13.1484 3.05469 13.0547L3.10156 18.0234L0.628906 18.1172V1.53516C1.30078 1.33203 1.97266 1.17969 2.64453 1.07812C3.31641 0.976562 3.92969 0.898438 4.48438 0.84375C5.125 0.789062 5.74609 0.753906 6.34766 0.738281C6.85547 0.738281 7.41797 0.773438 8.03516 0.84375C8.65234 0.914062 9.26953 1.03906 9.88672 1.21875C10.5117 1.39844 11.1133 1.64844 11.6914 1.96875C12.2773 2.28906 12.7891 2.69922 13.2266 3.19922C13.6719 3.69141 14.0195 4.28906 14.2695 4.99219C14.5195 5.69531 14.6289 6.51953 14.5977 7.46484ZM6.34766 3.09375C5.98828 3.09375 5.61719 3.10938 5.23438 3.14062C4.90625 3.16406 4.54297 3.19922 4.14453 3.24609C3.74609 3.28516 3.35938 3.34766 2.98438 3.43359L3.03125 10.8984C3.39844 10.9688 3.76562 11.0195 4.13281 11.0508C4.50781 11.0742 4.87109 11.0859 5.22266 11.0859C6.16016 11.0859 7.04688 10.9805 7.88281 10.7695C8.72656 10.5508 9.46484 10.2539 10.0977 9.87891C10.7305 9.50391 11.2344 9.0625 11.6094 8.55469C11.9844 8.03906 12.1719 7.48438 12.1719 6.89062C12.1719 6.28906 12.0273 5.75391 11.7383 5.28516C11.457 4.81641 11.0586 4.42188 10.543 4.10156C10.0273 3.77344 9.41016 3.52344 8.69141 3.35156C7.98047 3.17969 7.19922 3.09375 6.34766 3.09375ZM22.7656 16.9219C23.1797 16.9219 23.5898 16.8594 23.9961 16.7344C24.4023 16.6016 24.7773 16.4141 25.1211 16.1719C25.4648 15.9219 25.7617 15.6133 26.0117 15.2461C26.2695 14.8789 26.457 14.4531 26.5742 13.9688L28.8359 14.4258C28.6172 15.1367 28.3086 15.7812 27.9102 16.3594C27.5117 16.9375 27.0469 17.4336 26.5156 17.8477C25.9844 18.2617 25.3984 18.582 24.7578 18.8086C24.125 19.0352 23.4609 19.1484 22.7656 19.1484C21.7344 19.1484 20.8203 18.9922 20.0234 18.6797C19.2266 18.3672 18.5547 17.9258 18.0078 17.3555C17.4609 16.7852 17.043 16.0977 16.7539 15.293C16.4727 14.4883 16.332 13.5898 16.332 12.5977C16.332 11.6211 16.4961 10.7109 16.8242 9.86719C17.1602 9.01562 17.6172 8.27734 18.1953 7.65234C18.7734 7.02734 19.4531 6.53516 20.2344 6.17578C21.0156 5.81641 21.8594 5.63672 22.7656 5.63672C23.5781 5.63672 24.3438 5.79688 25.0625 6.11719C25.7812 6.42969 26.418 6.86719 26.9727 7.42969C27.5273 7.98438 27.9844 8.64062 28.3438 9.39844C28.7031 10.1562 28.9297 10.9766 29.0234 11.8594L18.875 13.3711C18.9297 13.9258 19.0664 14.4258 19.2852 14.8711C19.5039 15.3086 19.7812 15.6797 20.1172 15.9844C20.4609 16.2891 20.8555 16.5234 21.3008 16.6875C21.7539 16.8438 22.2422 16.9219 22.7656 16.9219ZM26 10.3477L25.9297 10.125C25.6328 9.35156 25.2227 8.74609 24.6992 8.30859C24.1836 7.87109 23.5391 7.65234 22.7656 7.65234C22.4375 7.65234 22.0781 7.71094 21.6875 7.82812C21.2969 7.9375 20.918 8.12891 20.5508 8.40234C20.1836 8.67578 19.8516 9.04297 19.5547 9.50391C19.2656 9.95703 19.0625 10.5234 18.9453 11.2031L26 10.3477ZM42.2891 6.11719L37.6836 18.457L34.3789 18.4102L30.2656 6.57422L32.6445 6.21094L36.1484 16.2773L39.875 5.78906L42.2891 6.11719ZM47.668 2.37891C47.668 2.60547 47.6211 2.82031 47.5273 3.02344C47.4414 3.22656 47.3203 3.40234 47.1641 3.55078C47.0156 3.69922 46.8398 3.81641 46.6367 3.90234C46.4336 3.98828 46.2148 4.03125 45.9805 4.03125C45.7539 4.03125 45.5391 3.98828 45.3359 3.90234C45.1406 3.81641 44.9648 3.69922 44.8086 3.55078C44.6602 3.40234 44.543 3.22656 44.457 3.02344C44.3711 2.82031 44.3281 2.60547 44.3281 2.37891C44.3281 2.14453 44.3711 1.92578 44.457 1.72266C44.543 1.51953 44.6602 1.34375 44.8086 1.19531C44.9648 1.03906 45.1406 0.917969 45.3359 0.832031C45.5391 0.738281 45.7539 0.691406 45.9805 0.691406C46.2148 0.691406 46.4336 0.738281 46.6367 0.832031C46.8398 0.917969 47.0156 1.03906 47.1641 1.19531C47.3203 1.34375 47.4414 1.51953 47.5273 1.72266C47.6211 1.92578 47.668 2.14453 47.668 2.37891ZM47.1172 6.50391C47.0938 7.62109 47.0703 8.64844 47.0469 9.58594C47.0312 10.5156 47.0156 11.3633 47 12.1289C46.9844 12.8945 46.9688 13.582 46.9531 14.1914C46.9453 14.793 46.9375 15.3203 46.9297 15.7734C46.9062 16.8516 46.8945 17.6992 46.8945 18.3164H44.4922C44.5078 17.4727 44.5273 16.4688 44.5508 15.3047C44.5664 14.3047 44.5859 13.082 44.6094 11.6367C44.6406 10.1914 44.668 8.51172 44.6914 6.59766L47.1172 6.50391ZM56.1172 16.9219C56.5312 16.9219 56.9414 16.8594 57.3477 16.7344C57.7539 16.6016 58.1289 16.4141 58.4727 16.1719C58.8164 15.9219 59.1133 15.6133 59.3633 15.2461C59.6211 14.8789 59.8086 14.4531 59.9258 13.9688L62.1875 14.4258C61.9688 15.1367 61.6602 15.7812 61.2617 16.3594C60.8633 16.9375 60.3984 17.4336 59.8672 17.8477C59.3359 18.2617 58.75 18.582 58.1094 18.8086C57.4766 19.0352 56.8125 19.1484 56.1172 19.1484C55.0859 19.1484 54.1719 18.9922 53.375 18.6797C52.5781 18.3672 51.9062 17.9258 51.3594 17.3555C50.8125 16.7852 50.3945 16.0977 50.1055 15.293C49.8242 14.4883 49.6836 13.5898 49.6836 12.5977C49.6836 11.6211 49.8477 10.7109 50.1758 9.86719C50.5117 9.01562 50.9688 8.27734 51.5469 7.65234C52.125 7.02734 52.8047 6.53516 53.5859 6.17578C54.3672 5.81641 55.2109 5.63672 56.1172 5.63672C56.9297 5.63672 57.6953 5.79688 58.4141 6.11719C59.1328 6.42969 59.7695 6.86719 60.3242 7.42969C60.8789 7.98438 61.3359 8.64062 61.6953 9.39844C62.0547 10.1562 62.2812 10.9766 62.375 11.8594L52.2266 13.3711C52.2812 13.9258 52.418 14.4258 52.6367 14.8711C52.8555 15.3086 53.1328 15.6797 53.4688 15.9844C53.8125 16.2891 54.207 16.5234 54.6523 16.6875C55.1055 16.8438 55.5938 16.9219 56.1172 16.9219ZM59.3516 10.3477L59.2812 10.125C58.9844 9.35156 58.5742 8.74609 58.0508 8.30859C57.5352 7.87109 56.8906 7.65234 56.1172 7.65234C55.7891 7.65234 55.4297 7.71094 55.0391 7.82812C54.6484 7.9375 54.2695 8.12891 53.9023 8.40234C53.5352 8.67578 53.2031 9.04297 52.9062 9.50391C52.6172 9.95703 52.4141 10.5234 52.2969 11.2031L59.3516 10.3477ZM80.3047 6.16406L77.9727 18.4102L74.4922 18.5039L72.4297 9.89062L69.5938 18.0938L66.0898 18.3633L63.8164 6.21094L66.2305 6.02344L68.0117 15.8672L71.4922 6.02344L73.7422 6.16406L76.1211 16.125L77.7031 6.07031L80.3047 6.16406Z" fill="#463C74"/>
<path d="M97.8945 13.418C97.918 14.2461 97.7852 14.957 97.4961 15.5508C97.207 16.1445 96.8125 16.6445 96.3125 17.0508C95.8203 17.4492 95.2422 17.7695 94.5781 18.0117C93.9219 18.2617 93.2305 18.4492 92.5039 18.5742C91.7852 18.707 91.0586 18.793 90.3242 18.832C89.5898 18.8711 88.9023 18.8906 88.2617 18.8906C87.6133 18.8906 86.8906 18.8711 86.0938 18.832C85.3047 18.8008 84.4375 18.7461 83.4922 18.668L82.9883 1.60547C83.8008 1.45703 84.5898 1.34766 85.3555 1.27734C86.1211 1.19922 86.8047 1.14453 87.4062 1.11328C88.1094 1.08203 88.7734 1.07031 89.3984 1.07812C89.9922 1.09375 90.5898 1.12891 91.1914 1.18359C91.793 1.23828 92.3672 1.33203 92.9141 1.46484C93.4688 1.58984 93.9844 1.76562 94.4609 1.99219C94.9375 2.21875 95.3516 2.50781 95.7031 2.85938C96.0547 3.21094 96.332 3.63672 96.5352 4.13672C96.7383 4.62891 96.8398 5.21094 96.8398 5.88281C96.8398 6.75781 96.6797 7.50781 96.3594 8.13281C96.0391 8.75 95.6211 9.26172 95.1055 9.66797C95.4336 9.77734 95.7266 9.91406 95.9844 10.0781C96.2422 10.2344 96.4648 10.4102 96.6523 10.6055C96.8477 10.8008 97.0117 11.0078 97.1445 11.2266C97.2852 11.4375 97.4023 11.6484 97.4961 11.8594C97.707 12.3438 97.8398 12.8633 97.8945 13.418ZM89.4453 3.21094C89.0781 3.21094 88.6797 3.22266 88.25 3.24609C87.8828 3.26172 87.4609 3.29297 86.9844 3.33984C86.5156 3.38672 86.0156 3.44922 85.4844 3.52734L85.6719 9.50391C86.3438 9.48828 86.9531 9.46875 87.5 9.44531C88.0547 9.41406 88.5312 9.38672 88.9297 9.36328C89.3984 9.33203 89.8164 9.30078 90.1836 9.26953C90.7617 9.23828 91.3125 9.14453 91.8359 8.98828C92.3672 8.82422 92.8281 8.60156 93.2188 8.32031C93.6094 8.03906 93.9102 7.69531 94.1211 7.28906C94.3398 6.88281 94.4219 6.41406 94.3672 5.88281C94.3203 5.49219 94.2109 5.15234 94.0391 4.86328C93.875 4.56641 93.6641 4.31641 93.4062 4.11328C93.1562 3.90234 92.8672 3.73438 92.5391 3.60938C92.2188 3.47656 91.8828 3.37891 91.5312 3.31641C91.1875 3.24609 90.8359 3.20703 90.4766 3.19922C90.1172 3.18359 89.7734 3.1875 89.4453 3.21094ZM91.6719 11.1562C91.4766 11.1719 91.3047 11.1875 91.1562 11.2031C91.0156 11.2109 90.8906 11.2188 90.7812 11.2266C90.6797 11.2344 90.5859 11.2422 90.5 11.25C90.4219 11.2578 90.3477 11.2617 90.2773 11.2617C89.8477 11.3008 89.3867 11.3359 88.8945 11.3672C88.4727 11.3984 87.9883 11.4336 87.4414 11.4727C86.8945 11.5039 86.3281 11.5352 85.7422 11.5664L85.918 16.7578C86.1367 16.7734 86.3516 16.7812 86.5625 16.7812C86.7734 16.7812 86.9805 16.7812 87.1836 16.7812C87.5508 16.7812 88.0117 16.7812 88.5664 16.7812C89.1289 16.7734 89.7148 16.7461 90.3242 16.6992C90.9414 16.6445 91.5547 16.5547 92.1641 16.4297C92.7812 16.2969 93.332 16.1094 93.8164 15.8672C94.3086 15.6172 94.6992 15.2969 94.9883 14.9062C95.2852 14.5156 95.4219 14.0273 95.3984 13.4414C95.3281 13.0195 95.1484 12.6406 94.8594 12.3047C94.7344 12.1641 94.5781 12.0234 94.3906 11.8828C94.2109 11.7422 93.9922 11.6211 93.7344 11.5195C93.4766 11.4102 93.1758 11.3242 92.832 11.2617C92.4961 11.1914 92.1094 11.1562 91.6719 11.1562ZM112.273 12.3164C112.273 13.3008 112.109 14.2109 111.781 15.0469C111.453 15.8828 111.004 16.6094 110.434 17.2266C109.863 17.8438 109.195 18.3242 108.43 18.668C107.664 19.0195 106.848 19.1953 105.98 19.1953C105.113 19.1953 104.301 19.0312 103.543 18.7031C102.785 18.375 102.121 17.9102 101.551 17.3086C100.988 16.6992 100.543 15.9727 100.215 15.1289C99.8867 14.2852 99.7227 13.3477 99.7227 12.3164C99.7227 11.2773 99.8867 10.3359 100.215 9.49219C100.543 8.64062 100.988 7.91406 101.551 7.3125C102.121 6.71094 102.785 6.24609 103.543 5.91797C104.301 5.58984 105.113 5.42578 105.98 5.42578C106.848 5.42578 107.664 5.60156 108.43 5.95312C109.195 6.29688 109.863 6.77734 110.434 7.39453C111.004 8.00391 111.453 8.73047 111.781 9.57422C112.109 10.4102 112.273 11.3242 112.273 12.3164ZM109.801 12.293C109.801 11.7305 109.73 11.1641 109.59 10.5938C109.449 10.0156 109.227 9.5 108.922 9.04688C108.617 8.58594 108.223 8.21094 107.738 7.92188C107.254 7.63281 106.668 7.48828 105.98 7.48828C105.316 7.48828 104.746 7.63281 104.27 7.92188C103.793 8.21094 103.402 8.58594 103.098 9.04688C102.793 9.5 102.57 10.0156 102.43 10.5938C102.289 11.1641 102.219 11.7305 102.219 12.293C102.219 12.8555 102.293 13.4219 102.441 13.9922C102.598 14.5625 102.832 15.0781 103.145 15.5391C103.457 15.9922 103.848 16.3633 104.316 16.6523C104.793 16.9414 105.348 17.0859 105.98 17.0859C106.645 17.0859 107.215 16.9414 107.691 16.6523C108.176 16.3633 108.574 15.9922 108.887 15.5391C109.199 15.0781 109.43 14.5625 109.578 13.9922C109.727 13.4219 109.801 12.8555 109.801 12.293ZM126.641 12.3164C126.641 13.3008 126.477 14.2109 126.148 15.0469C125.82 15.8828 125.371 16.6094 124.801 17.2266C124.23 17.8438 123.562 18.3242 122.797 18.668C122.031 19.0195 121.215 19.1953 120.348 19.1953C119.48 19.1953 118.668 19.0312 117.91 18.7031C117.152 18.375 116.488 17.9102 115.918 17.3086C115.355 16.6992 114.91 15.9727 114.582 15.1289C114.254 14.2852 114.09 13.3477 114.09 12.3164C114.09 11.2773 114.254 10.3359 114.582 9.49219C114.91 8.64062 115.355 7.91406 115.918 7.3125C116.488 6.71094 117.152 6.24609 117.91 5.91797C118.668 5.58984 119.48 5.42578 120.348 5.42578C121.215 5.42578 122.031 5.60156 122.797 5.95312C123.562 6.29688 124.23 6.77734 124.801 7.39453C125.371 8.00391 125.82 8.73047 126.148 9.57422C126.477 10.4102 126.641 11.3242 126.641 12.3164ZM124.168 12.293C124.168 11.7305 124.098 11.1641 123.957 10.5938C123.816 10.0156 123.594 9.5 123.289 9.04688C122.984 8.58594 122.59 8.21094 122.105 7.92188C121.621 7.63281 121.035 7.48828 120.348 7.48828C119.684 7.48828 119.113 7.63281 118.637 7.92188C118.16 8.21094 117.77 8.58594 117.465 9.04688C117.16 9.5 116.938 10.0156 116.797 10.5938C116.656 11.1641 116.586 11.7305 116.586 12.293C116.586 12.8555 116.66 13.4219 116.809 13.9922C116.965 14.5625 117.199 15.0781 117.512 15.5391C117.824 15.9922 118.215 16.3633 118.684 16.6523C119.16 16.9414 119.715 17.0859 120.348 17.0859C121.012 17.0859 121.582 16.9414 122.059 16.6523C122.543 16.3633 122.941 15.9922 123.254 15.5391C123.566 15.0781 123.797 14.5625 123.945 13.9922C124.094 13.4219 124.168 12.8555 124.168 12.293ZM132.348 0.234375L131.914 11.3555L138.031 5.20312L139.836 6.64453L135.465 10.9688L140.504 17.5195L138.441 19.0312L133.73 12.6914L131.785 14.5898L131.668 18.1172L129.148 18.2695L129.746 0.1875L132.348 0.234375Z" fill="#B4D51E"/>
</svg>
